<svg width="111" height="20" viewBox="0 0 111 20" fill="none" xmlns="http://www.w3.org/2000/svg">
<path d="M2.78 12.16H7.48V14H0.5V0.099999H2.78V12.16ZM8.62672 8.44C8.62672 7.33333 8.85339 6.35333 9.30672 5.5C9.77339 4.64667 10.4001 3.98667 11.1867 3.52C11.9867 3.04 12.8667 2.8 13.8267 2.8C14.6934 2.8 15.4467 2.97333 16.0867 3.32C16.7401 3.65333 17.2601 4.07333 17.6467 4.58V2.98H19.9467V14H17.6467V12.36C17.2601 12.88 16.7334 13.3133 16.0667 13.66C15.4001 14.0067 14.6401 14.18 13.7867 14.18C12.8401 14.18 11.9734 13.94 11.1867 13.46C10.4001 12.9667 9.77339 12.2867 9.30672 11.42C8.85339 10.54 8.62672 9.54667 8.62672 8.44ZM17.6467 8.48C17.6467 7.72 17.4867 7.06 17.1667 6.5C16.8601 5.94 16.4534 5.51333 15.9467 5.22C15.4401 4.92667 14.8934 4.78 14.3067 4.78C13.7201 4.78 13.1734 4.92667 12.6667 5.22C12.1601 5.5 11.7467 5.92 11.4267 6.48C11.1201 7.02667 10.9667 7.68 10.9667 8.44C10.9667 9.2 11.1201 9.86667 11.4267 10.44C11.7467 11.0133 12.1601 11.4533 12.6667 11.76C13.1867 12.0533 13.7334 12.2 14.3067 12.2C14.8934 12.2 15.4401 12.0533 15.9467 11.76C16.4534 11.4667 16.8601 11.04 17.1667 10.48C17.4867 9.90667 17.6467 9.24 17.6467 8.48ZM28.5014 2.8C29.3681 2.8 30.1414 2.98 30.8214 3.34C31.5147 3.7 32.0547 4.23333 32.4414 4.94C32.8281 5.64667 33.0214 6.5 33.0214 7.5V14H30.7614V7.84C30.7614 6.85333 30.5147 6.1 30.0214 5.58C29.5281 5.04667 28.8547 4.78 28.0014 4.78C27.1481 4.78 26.4681 5.04667 25.9614 5.58C25.4681 6.1 25.2214 6.85333 25.2214 7.84V14H22.9414V2.98H25.2214V4.24C25.5947 3.78667 26.0681 3.43333 26.6414 3.18C27.2281 2.92667 27.8481 2.8 28.5014 2.8ZM40.3697 2.8C41.223 2.8 41.9764 2.97333 42.6297 3.32C43.2964 3.65333 43.8164 4.07333 44.1897 4.58V2.98H46.4897V14.18C46.4897 15.1933 46.2764 16.0933 45.8497 16.88C45.423 17.68 44.803 18.3067 43.9897 18.76C43.1897 19.2133 42.2297 19.44 41.1097 19.44C39.6164 19.44 38.3764 19.0867 37.3897 18.38C36.403 17.6867 35.843 16.74 35.7097 15.54H37.9697C38.143 16.1133 38.5097 16.5733 39.0697 16.92C39.643 17.28 40.323 17.46 41.1097 17.46C42.0297 17.46 42.7697 17.18 43.3297 16.62C43.903 16.06 44.1897 15.2467 44.1897 14.18V12.34C43.803 12.86 43.2764 13.3 42.6097 13.66C41.9564 14.0067 41.2097 14.18 40.3697 14.18C39.4097 14.18 38.5297 13.94 37.7297 13.46C36.943 12.9667 36.3164 12.2867 35.8497 11.42C35.3964 10.54 35.1697 9.54667 35.1697 8.44C35.1697 7.33333 35.3964 6.35333 35.8497 5.5C36.3164 4.64667 36.943 3.98667 37.7297 3.52C38.5297 3.04 39.4097 2.8 40.3697 2.8ZM44.1897 8.48C44.1897 7.72 44.0297 7.06 43.7097 6.5C43.403 5.94 42.9964 5.51333 42.4897 5.22C41.983 4.92667 41.4364 4.78 40.8497 4.78C40.263 4.78 39.7164 4.92667 39.2097 5.22C38.703 5.5 38.2897 5.92 37.9697 6.48C37.663 7.02667 37.5097 7.68 37.5097 8.44C37.5097 9.2 37.663 9.86667 37.9697 10.44C38.2897 11.0133 38.703 11.4533 39.2097 11.76C39.7297 12.0533 40.2764 12.2 40.8497 12.2C41.4364 12.2 41.983 12.0533 42.4897 11.76C42.9964 11.4667 43.403 11.04 43.7097 10.48C44.0297 9.90667 44.1897 9.24 44.1897 8.48ZM59.4644 2.98V14H57.1844V12.7C56.8244 13.1533 56.351 13.5133 55.7644 13.78C55.191 14.0333 54.5777 14.16 53.9244 14.16C53.0577 14.16 52.2777 13.98 51.5844 13.62C50.9044 13.26 50.3644 12.7267 49.9644 12.02C49.5777 11.3133 49.3844 10.46 49.3844 9.46V2.98H51.6444V9.12C51.6444 10.1067 51.891 10.8667 52.3844 11.4C52.8777 11.92 53.551 12.18 54.4044 12.18C55.2577 12.18 55.931 11.92 56.4244 11.4C56.931 10.8667 57.1844 10.1067 57.1844 9.12V2.98H59.4644ZM61.7127 8.44C61.7127 7.33333 61.9393 6.35333 62.3927 5.5C62.8593 4.64667 63.486 3.98667 64.2727 3.52C65.0727 3.04 65.9527 2.8 66.9127 2.8C67.7793 2.8 68.5327 2.97333 69.1727 3.32C69.826 3.65333 70.346 4.07333 70.7327 4.58V2.98H73.0327V14H70.7327V12.36C70.346 12.88 69.8193 13.3133 69.1527 13.66C68.486 14.0067 67.726 14.18 66.8727 14.18C65.926 14.18 65.0593 13.94 64.2727 13.46C63.486 12.9667 62.8593 12.2867 62.3927 11.42C61.9393 10.54 61.7127 9.54667 61.7127 8.44ZM70.7327 8.48C70.7327 7.72 70.5727 7.06 70.2527 6.5C69.946 5.94 69.5393 5.51333 69.0327 5.22C68.526 4.92667 67.9793 4.78 67.3927 4.78C66.806 4.78 66.2593 4.92667 65.7527 5.22C65.246 5.5 64.8327 5.92 64.5127 6.48C64.206 7.02667 64.0527 7.68 64.0527 8.44C64.0527 9.2 64.206 9.86667 64.5127 10.44C64.8327 11.0133 65.246 11.4533 65.7527 11.76C66.2727 12.0533 66.8193 12.2 67.3927 12.2C67.9793 12.2 68.526 12.0533 69.0327 11.76C69.5393 11.4667 69.946 11.04 70.2527 10.48C70.5727 9.90667 70.7327 9.24 70.7327 8.48ZM80.4673 2.8C81.3207 2.8 82.074 2.97333 82.7273 3.32C83.394 3.65333 83.914 4.07333 84.2873 4.58V2.98H86.5873V14.18C86.5873 15.1933 86.374 16.0933 85.9473 16.88C85.5207 17.68 84.9007 18.3067 84.0873 18.76C83.2873 19.2133 82.3273 19.44 81.2073 19.44C79.714 19.44 78.474 19.0867 77.4873 18.38C76.5007 17.6867 75.9407 16.74 75.8073 15.54H78.0673C78.2407 16.1133 78.6073 16.5733 79.1673 16.92C79.7407 17.28 80.4207 17.46 81.2073 17.46C82.1273 17.46 82.8673 17.18 83.4273 16.62C84.0007 16.06 84.2873 15.2467 84.2873 14.18V12.34C83.9007 12.86 83.374 13.3 82.7073 13.66C82.054 14.0067 81.3073 14.18 80.4673 14.18C79.5073 14.18 78.6273 13.94 77.8273 13.46C77.0407 12.9667 76.414 12.2867 75.9473 11.42C75.494 10.54 75.2673 9.54667 75.2673 8.44C75.2673 7.33333 75.494 6.35333 75.9473 5.5C76.414 4.64667 77.0407 3.98667 77.8273 3.52C78.6273 3.04 79.5073 2.8 80.4673 2.8ZM84.2873 8.48C84.2873 7.72 84.1273 7.06 83.8073 6.5C83.5007 5.94 83.094 5.51333 82.5873 5.22C82.0807 4.92667 81.534 4.78 80.9473 4.78C80.3607 4.78 79.814 4.92667 79.3073 5.22C78.8007 5.5 78.3873 5.92 78.0673 6.48C77.7607 7.02667 77.6073 7.68 77.6073 8.44C77.6073 9.2 77.7607 9.86667 78.0673 10.44C78.3873 11.0133 78.8007 11.4533 79.3073 11.76C79.8273 12.0533 80.374 12.2 80.9473 12.2C81.534 12.2 82.0807 12.0533 82.5873 11.76C83.094 11.4667 83.5007 11.04 83.8073 10.48C84.1273 9.90667 84.2873 9.24 84.2873 8.48ZM99.682 8.22C99.682 8.63333 99.6554 9.00667 99.602 9.34H91.182C91.2487 10.22 91.5754 10.9267 92.162 11.46C92.7487 11.9933 93.4687 12.26 94.322 12.26C95.5487 12.26 96.4154 11.7467 96.922 10.72H99.382C99.0487 11.7333 98.442 12.5667 97.562 13.22C96.6954 13.86 95.6154 14.18 94.322 14.18C93.2687 14.18 92.322 13.9467 91.482 13.48C90.6554 13 90.002 12.3333 89.522 11.48C89.0554 10.6133 88.822 9.61333 88.822 8.48C88.822 7.34667 89.0487 6.35333 89.502 5.5C89.9687 4.63333 90.6154 3.96667 91.442 3.5C92.282 3.03333 93.242 2.8 94.322 2.8C95.362 2.8 96.2887 3.02667 97.102 3.48C97.9154 3.93333 98.5487 4.57333 99.002 5.4C99.4554 6.21333 99.682 7.15333 99.682 8.22ZM97.302 7.5C97.2887 6.66 96.9887 5.98667 96.402 5.48C95.8154 4.97333 95.0887 4.72 94.222 4.72C93.4354 4.72 92.762 4.97333 92.202 5.48C91.642 5.97333 91.3087 6.64667 91.202 7.5H97.302ZM105.926 14.18C105.059 14.18 104.279 14.0267 103.586 13.72C102.906 13.4 102.366 12.9733 101.966 12.44C101.566 11.8933 101.352 11.2867 101.326 10.62H103.686C103.726 11.0867 103.946 11.48 104.346 11.8C104.759 12.1067 105.272 12.26 105.886 12.26C106.526 12.26 107.019 12.14 107.366 11.9C107.726 11.6467 107.906 11.3267 107.906 10.94C107.906 10.5267 107.706 10.22 107.306 10.02C106.919 9.82 106.299 9.6 105.446 9.36C104.619 9.13333 103.946 8.91333 103.426 8.7C102.906 8.48667 102.452 8.16 102.066 7.72C101.692 7.28 101.506 6.7 101.506 5.98C101.506 5.39333 101.679 4.86 102.026 4.38C102.372 3.88667 102.866 3.5 103.506 3.22C104.159 2.94 104.906 2.8 105.746 2.8C106.999 2.8 108.006 3.12 108.766 3.76C109.539 4.38667 109.952 5.24667 110.006 6.34H107.726C107.686 5.84667 107.486 5.45333 107.126 5.16C106.766 4.86667 106.279 4.72 105.666 4.72C105.066 4.72 104.606 4.83333 104.286 5.06C103.966 5.28667 103.806 5.58667 103.806 5.96C103.806 6.25333 103.912 6.5 104.126 6.7C104.339 6.9 104.599 7.06 104.906 7.18C105.212 7.28667 105.666 7.42667 106.266 7.6C107.066 7.81333 107.719 8.03333 108.226 8.26C108.746 8.47333 109.192 8.79333 109.566 9.22C109.939 9.64667 110.132 10.2133 110.146 10.92C110.146 11.5467 109.972 12.1067 109.626 12.6C109.279 13.0933 108.786 13.48 108.146 13.76C107.519 14.04 106.779 14.18 105.926 14.18Z" fill="black"/>
</svg>
