<svg width="20" height="17" viewBox="0 0 20 17" fill="none" xmlns="http://www.w3.org/2000/svg">
<path d="M13.6448 0.0345459C10.1561 0.0345459 7.28906 2.86213 7.28906 6.37937V16.3104C7.28906 16.6897 7.59994 17.0001 7.97991 17.0001H11.5723C11.9523 17.0001 12.2632 16.6897 12.2632 16.3104V6.65524C12.2632 5.89661 12.8849 5.27592 13.6448 5.27592C14.4048 5.27592 15.0265 5.89661 15.0265 6.65524V16.3104C15.0265 16.6897 15.3374 17.0001 15.7174 17.0001H19.3098C19.6898 17.0001 20.0006 16.6897 20.0006 16.3104V6.37937C20.0006 2.89662 17.1682 0.0345459 13.6448 0.0345459Z" fill="#505F79"/>
<path d="M4.28325 3.27588H0.690846C0.310881 3.27588 0 3.58622 0 3.96553V16.3104C0 16.6897 0.310881 17 0.690846 17H4.28325C4.66321 17 4.97409 16.6897 4.97409 16.3104V3.96553C4.97409 3.58622 4.66321 3.27588 4.28325 3.27588Z" fill="#505F79"/>
</svg>
